<svg id="visual" viewBox="0 0 1920 964" width="1920" height="964" xmlns="http://www.w3.org/2000/svg" xmlns:xlink="http://www.w3.org/1999/xlink" version="1.1"><rect x="0" y="0" width="1920" height="964" fill="#E2E8F0"></rect><path d="M0 573L29.2 571.5C58.3 570 116.7 567 174.8 575.2C233 583.3 291 602.7 349.2 604.2C407.3 605.7 465.7 589.3 523.8 583.7C582 578 640 583 698.2 594C756.3 605 814.7 622 872.8 634.8C931 647.7 989 656.3 1047.2 657.3C1105.3 658.3 1163.7 651.7 1221.8 652.8C1280 654 1338 663 1396.2 664.2C1454.3 665.3 1512.7 658.7 1570.8 638.8C1629 619 1687 586 1745.2 573.5C1803.3 561 1861.7 569 1890.8 573L1920 577L1920 965L1890.8 965C1861.7 965 1803.3 965 1745.2 965C1687 965 1629 965 1570.8 965C1512.7 965 1454.3 965 1396.2 965C1338 965 1280 965 1221.8 965C1163.7 965 1105.3 965 1047.2 965C989 965 931 965 872.8 965C814.7 965 756.3 965 698.2 965C640 965 582 965 523.8 965C465.7 965 407.3 965 349.2 965C291 965 233 965 174.8 965C116.7 965 58.3 965 29.2 965L0 965Z" fill="#f56565"></path><path d="M0 705L29.2 691.3C58.3 677.7 116.7 650.3 174.8 641.8C233 633.3 291 643.7 349.2 639.5C407.3 635.3 465.7 616.7 523.8 614C582 611.3 640 624.7 698.2 625.3C756.3 626 814.7 614 872.8 619C931 624 989 646 1047.2 652.7C1105.3 659.3 1163.7 650.7 1221.8 640.3C1280 630 1338 618 1396.2 617.3C1454.3 616.7 1512.7 627.3 1570.8 636.2C1629 645 1687 652 1745.2 663C1803.3 674 1861.7 689 1890.8 696.5L1920 704L1920 965L1890.8 965C1861.7 965 1803.3 965 1745.2 965C1687 965 1629 965 1570.8 965C1512.7 965 1454.3 965 1396.2 965C1338 965 1280 965 1221.8 965C1163.7 965 1105.3 965 1047.2 965C989 965 931 965 872.8 965C814.7 965 756.3 965 698.2 965C640 965 582 965 523.8 965C465.7 965 407.3 965 349.2 965C291 965 233 965 174.8 965C116.7 965 58.3 965 29.2 965L0 965Z" fill="#e45c5c"></path><path d="M0 682L29.2 675.3C58.3 668.7 116.7 655.3 174.8 650.2C233 645 291 648 349.2 654.3C407.3 660.7 465.7 670.3 523.8 684.2C582 698 640 716 698.2 720.5C756.3 725 814.7 716 872.8 703.3C931 690.7 989 674.3 1047.2 679C1105.3 683.7 1163.7 709.3 1221.8 712.2C1280 715 1338 695 1396.2 683.2C1454.3 671.3 1512.7 667.7 1570.8 664.3C1629 661 1687 658 1745.2 669.5C1803.3 681 1861.7 707 1890.8 720L1920 733L1920 965L1890.8 965C1861.7 965 1803.3 965 1745.2 965C1687 965 1629 965 1570.8 965C1512.7 965 1454.3 965 1396.2 965C1338 965 1280 965 1221.8 965C1163.7 965 1105.3 965 1047.2 965C989 965 931 965 872.8 965C814.7 965 756.3 965 698.2 965C640 965 582 965 523.8 965C465.7 965 407.3 965 349.2 965C291 965 233 965 174.8 965C116.7 965 58.3 965 29.2 965L0 965Z" fill="#d35352"></path><path d="M0 771L29.2 766.7C58.3 762.3 116.7 753.7 174.8 743.2C233 732.7 291 720.3 349.2 714.5C407.3 708.7 465.7 709.3 523.8 710.7C582 712 640 714 698.2 723.2C756.3 732.3 814.7 748.7 872.8 752.8C931 757 989 749 1047.2 750.3C1105.3 751.7 1163.7 762.3 1221.8 757.8C1280 753.3 1338 733.7 1396.2 720.2C1454.3 706.7 1512.7 699.3 1570.8 696.3C1629 693.3 1687 694.7 1745.2 702.7C1803.3 710.7 1861.7 725.3 1890.8 732.7L1920 740L1920 965L1890.8 965C1861.7 965 1803.3 965 1745.2 965C1687 965 1629 965 1570.8 965C1512.7 965 1454.3 965 1396.2 965C1338 965 1280 965 1221.8 965C1163.7 965 1105.3 965 1047.2 965C989 965 931 965 872.8 965C814.7 965 756.3 965 698.2 965C640 965 582 965 523.8 965C465.7 965 407.3 965 349.2 965C291 965 233 965 174.8 965C116.7 965 58.3 965 29.2 965L0 965Z" fill="#c24949"></path><path d="M0 737L29.2 743.8C58.3 750.7 116.7 764.3 174.8 771.3C233 778.3 291 778.7 349.2 773.2C407.3 767.7 465.7 756.3 523.8 749.7C582 743 640 741 698.2 745.5C756.3 750 814.7 761 872.8 761C931 761 989 750 1047.2 756.7C1105.3 763.3 1163.7 787.7 1221.8 790.2C1280 792.7 1338 773.3 1396.2 769C1454.3 764.7 1512.7 775.3 1570.8 778C1629 780.7 1687 775.3 1745.2 768.7C1803.3 762 1861.7 754 1890.8 750L1920 746L1920 965L1890.8 965C1861.7 965 1803.3 965 1745.2 965C1687 965 1629 965 1570.8 965C1512.7 965 1454.3 965 1396.2 965C1338 965 1280 965 1221.8 965C1163.7 965 1105.3 965 1047.2 965C989 965 931 965 872.8 965C814.7 965 756.3 965 698.2 965C640 965 582 965 523.8 965C465.7 965 407.3 965 349.2 965C291 965 233 965 174.8 965C116.7 965 58.3 965 29.2 965L0 965Z" fill="#b24141"></path><path d="M0 800L29.2 805.5C58.3 811 116.7 822 174.8 828.5C233 835 291 837 349.2 838C407.3 839 465.7 839 523.8 838.3C582 837.7 640 836.3 698.2 829.5C756.3 822.7 814.7 810.3 872.8 803.8C931 797.3 989 796.7 1047.2 796.5C1105.3 796.3 1163.7 796.7 1221.8 795C1280 793.3 1338 789.7 1396.2 796C1454.3 802.3 1512.7 818.7 1570.8 820.2C1629 821.7 1687 808.3 1745.2 802.7C1803.3 797 1861.7 799 1890.8 800L1920 801L1920 965L1890.8 965C1861.7 965 1803.3 965 1745.2 965C1687 965 1629 965 1570.8 965C1512.7 965 1454.3 965 1396.2 965C1338 965 1280 965 1221.8 965C1163.7 965 1105.3 965 1047.2 965C989 965 931 965 872.8 965C814.7 965 756.3 965 698.2 965C640 965 582 965 523.8 965C465.7 965 407.3 965 349.2 965C291 965 233 965 174.8 965C116.7 965 58.3 965 29.2 965L0 965Z" fill="#a23838"></path><path d="M0 838L29.2 837.8C58.3 837.7 116.7 837.3 174.8 837.5C233 837.7 291 838.3 349.2 842.7C407.3 847 465.7 855 523.8 854.7C582 854.3 640 845.7 698.2 841.7C756.3 837.7 814.7 838.3 872.8 842.5C931 846.7 989 854.3 1047.2 858.3C1105.3 862.3 1163.7 862.7 1221.8 860.8C1280 859 1338 855 1396.2 851.2C1454.3 847.3 1512.7 843.7 1570.8 842.8C1629 842 1687 844 1745.2 847.5C1803.3 851 1861.7 856 1890.8 858.5L1920 861L1920 965L1890.8 965C1861.7 965 1803.3 965 1745.2 965C1687 965 1629 965 1570.8 965C1512.7 965 1454.3 965 1396.2 965C1338 965 1280 965 1221.8 965C1163.7 965 1105.3 965 1047.2 965C989 965 931 965 872.8 965C814.7 965 756.3 965 698.2 965C640 965 582 965 523.8 965C465.7 965 407.3 965 349.2 965C291 965 233 965 174.8 965C116.7 965 58.3 965 29.2 965L0 965Z" fill="#922f2f"></path><path d="M0 910L29.2 909.2C58.3 908.3 116.7 906.7 174.8 904C233 901.3 291 897.7 349.2 896.2C407.3 894.7 465.7 895.3 523.8 893.5C582 891.7 640 887.3 698.2 886.5C756.3 885.7 814.7 888.3 872.8 888.3C931 888.3 989 885.7 1047.2 887C1105.3 888.3 1163.7 893.7 1221.8 899C1280 904.3 1338 909.7 1396.2 907.5C1454.3 905.3 1512.7 895.7 1570.8 891.8C1629 888 1687 890 1745.2 890.8C1803.3 891.7 1861.7 891.3 1890.8 891.2L1920 891L1920 965L1890.8 965C1861.7 965 1803.3 965 1745.2 965C1687 965 1629 965 1570.8 965C1512.7 965 1454.3 965 1396.2 965C1338 965 1280 965 1221.8 965C1163.7 965 1105.3 965 1047.2 965C989 965 931 965 872.8 965C814.7 965 756.3 965 698.2 965C640 965 582 965 523.8 965C465.7 965 407.3 965 349.2 965C291 965 233 965 174.8 965C116.7 965 58.3 965 29.2 965L0 965Z" fill="#822727"></path></svg>