<svg id="visual" viewBox="0 0 1920 1080" width="1920" height="1080" xmlns="http://www.w3.org/2000/svg" xmlns:xlink="http://www.w3.org/1999/xlink" version="1.1"><rect x="0" y="0" width="1920" height="1080" fill="#001220"></rect><path d="M0 361L45.7 386.8C91.3 412.7 182.7 464.3 274.2 495.7C365.7 527 457.3 538 548.8 555.8C640.3 573.7 731.7 598.3 823 611.3C914.3 624.3 1005.7 625.7 1097 590.3C1188.3 555 1279.7 483 1371.2 480.7C1462.7 478.3 1554.3 545.7 1645.8 575.2C1737.3 604.7 1828.7 596.3 1874.3 592.2L1920 588L1920 1081L1874.3 1081C1828.7 1081 1737.3 1081 1645.8 1081C1554.3 1081 1462.7 1081 1371.2 1081C1279.7 1081 1188.3 1081 1097 1081C1005.7 1081 914.3 1081 823 1081C731.7 1081 640.3 1081 548.8 1081C457.3 1081 365.7 1081 274.2 1081C182.7 1081 91.3 1081 45.7 1081L0 1081Z" fill="#fa7268"></path><path d="M0 729L45.7 710.8C91.3 692.7 182.7 656.3 274.2 640C365.7 623.7 457.3 627.3 548.8 630.7C640.3 634 731.7 637 823 651.5C914.3 666 1005.7 692 1097 672.8C1188.3 653.7 1279.7 589.3 1371.2 556C1462.7 522.7 1554.3 520.3 1645.8 527.2C1737.3 534 1828.7 550 1874.3 558L1920 566L1920 1081L1874.3 1081C1828.7 1081 1737.3 1081 1645.8 1081C1554.3 1081 1462.7 1081 1371.2 1081C1279.7 1081 1188.3 1081 1097 1081C1005.7 1081 914.3 1081 823 1081C731.7 1081 640.3 1081 548.8 1081C457.3 1081 365.7 1081 274.2 1081C182.7 1081 91.3 1081 45.7 1081L0 1081Z" fill="#ef5f67"></path><path d="M0 791L45.7 778.3C91.3 765.7 182.7 740.3 274.2 730.3C365.7 720.3 457.3 725.7 548.8 721.7C640.3 717.7 731.7 704.3 823 698.5C914.3 692.7 1005.7 694.3 1097 691.7C1188.3 689 1279.7 682 1371.2 672.3C1462.7 662.7 1554.3 650.3 1645.8 661.2C1737.3 672 1828.7 706 1874.3 723L1920 740L1920 1081L1874.3 1081C1828.7 1081 1737.3 1081 1645.8 1081C1554.3 1081 1462.7 1081 1371.2 1081C1279.7 1081 1188.3 1081 1097 1081C1005.7 1081 914.3 1081 823 1081C731.7 1081 640.3 1081 548.8 1081C457.3 1081 365.7 1081 274.2 1081C182.7 1081 91.3 1081 45.7 1081L0 1081Z" fill="#e34c67"></path><path d="M0 778L45.7 798.3C91.3 818.7 182.7 859.3 274.2 879.5C365.7 899.7 457.3 899.3 548.8 887.2C640.3 875 731.7 851 823 825.7C914.3 800.3 1005.7 773.7 1097 777.5C1188.3 781.3 1279.7 815.7 1371.2 823C1462.7 830.3 1554.3 810.7 1645.8 795.5C1737.3 780.3 1828.7 769.7 1874.3 764.3L1920 759L1920 1081L1874.3 1081C1828.7 1081 1737.3 1081 1645.8 1081C1554.3 1081 1462.7 1081 1371.2 1081C1279.7 1081 1188.3 1081 1097 1081C1005.7 1081 914.3 1081 823 1081C731.7 1081 640.3 1081 548.8 1081C457.3 1081 365.7 1081 274.2 1081C182.7 1081 91.3 1081 45.7 1081L0 1081Z" fill="#d53867"></path><path d="M0 913L45.7 908.2C91.3 903.3 182.7 893.7 274.2 893.8C365.7 894 457.3 904 548.8 911.2C640.3 918.3 731.7 922.7 823 937.3C914.3 952 1005.7 977 1097 978.5C1188.3 980 1279.7 958 1371.2 950.7C1462.7 943.3 1554.3 950.7 1645.8 950.2C1737.3 949.7 1828.7 941.3 1874.3 937.2L1920 933L1920 1081L1874.3 1081C1828.7 1081 1737.3 1081 1645.8 1081C1554.3 1081 1462.7 1081 1371.2 1081C1279.7 1081 1188.3 1081 1097 1081C1005.7 1081 914.3 1081 823 1081C731.7 1081 640.3 1081 548.8 1081C457.3 1081 365.7 1081 274.2 1081C182.7 1081 91.3 1081 45.7 1081L0 1081Z" fill="#c62368"></path></svg>