<svg id="visual" viewBox="0 0 960 300" width="960" height="300" xmlns="http://www.w3.org/2000/svg" xmlns:xlink="http://www.w3.org/1999/xlink" version="1.1"><rect x="0" y="0" width="960" height="300" fill="#001220"></rect><path d="M0 100L22.8 107.2C45.7 114.3 91.3 128.7 137 137.3C182.7 146 228.3 149 274 153.8C319.7 158.7 365.3 165.3 411.2 169C457 172.7 503 173.3 548.8 163.7C594.7 154 640.3 134 686 133.3C731.7 132.7 777.3 151.3 823 159.5C868.7 167.7 914.3 165.3 937.2 164.2L960 163L960 301L937.2 301C914.3 301 868.7 301 823 301C777.3 301 731.7 301 686 301C640.3 301 594.7 301 548.8 301C503 301 457 301 411.2 301C365.3 301 319.7 301 274 301C228.3 301 182.7 301 137 301C91.3 301 45.7 301 22.8 301L0 301Z" fill="#fa7268"></path><path d="M0 202L22.8 196.8C45.7 191.7 91.3 181.3 137 176.8C182.7 172.3 228.3 173.7 274 174.7C319.7 175.7 365.3 176.3 411.2 180.3C457 184.3 503 191.7 548.8 186.3C594.7 181 640.3 163 686 153.7C731.7 144.3 777.3 143.7 823 145.7C868.7 147.7 914.3 152.3 937.2 154.7L960 157L960 301L937.2 301C914.3 301 868.7 301 823 301C777.3 301 731.7 301 686 301C640.3 301 594.7 301 548.8 301C503 301 457 301 411.2 301C365.3 301 319.7 301 274 301C228.3 301 182.7 301 137 301C91.3 301 45.7 301 22.8 301L0 301Z" fill="#ef5f67"></path><path d="M0 219L22.8 215.5C45.7 212 91.3 205 137 202.2C182.7 199.3 228.3 200.7 274 199.5C319.7 198.3 365.3 194.7 411.2 193.2C457 191.7 503 192.3 548.8 191.7C594.7 191 640.3 189 686 186.3C731.7 183.7 777.3 180.3 823 183.3C868.7 186.3 914.3 195.7 937.2 200.3L960 205L960 301L937.2 301C914.3 301 868.7 301 823 301C777.3 301 731.7 301 686 301C640.3 301 594.7 301 548.8 301C503 301 457 301 411.2 301C365.3 301 319.7 301 274 301C228.3 301 182.7 301 137 301C91.3 301 45.7 301 22.8 301L0 301Z" fill="#e34c67"></path><path d="M0 215L22.8 220.7C45.7 226.3 91.3 237.7 137 243.3C182.7 249 228.3 249 274 245.7C319.7 242.3 365.3 235.7 411.2 228.7C457 221.7 503 214.3 548.8 215.3C594.7 216.3 640.3 225.7 686 227.7C731.7 229.7 777.3 224.3 823 220.2C868.7 216 914.3 213 937.2 211.5L960 210L960 301L937.2 301C914.3 301 868.7 301 823 301C777.3 301 731.7 301 686 301C640.3 301 594.7 301 548.8 301C503 301 457 301 411.2 301C365.3 301 319.7 301 274 301C228.3 301 182.7 301 137 301C91.3 301 45.7 301 22.8 301L0 301Z" fill="#d53867"></path><path d="M0 253L22.8 251.7C45.7 250.3 91.3 247.7 137 247.7C182.7 247.7 228.3 250.3 274 252.3C319.7 254.3 365.3 255.7 411.2 259.8C457 264 503 271 548.8 271.3C594.7 271.7 640.3 265.3 686 263.3C731.7 261.3 777.3 263.7 823 263.5C868.7 263.3 914.3 260.7 937.2 259.3L960 258L960 301L937.2 301C914.3 301 868.7 301 823 301C777.3 301 731.7 301 686 301C640.3 301 594.7 301 548.8 301C503 301 457 301 411.2 301C365.3 301 319.7 301 274 301C228.3 301 182.7 301 137 301C91.3 301 45.7 301 22.8 301L0 301Z" fill="#c62368"></path></svg>