<svg width="670" height="169" viewBox="0 0 670 169" fill="none" xmlns="http://www.w3.org/2000/svg">
<path d="M192.938 44V135H177.25V44H192.938ZM230.062 83.8125V96.25H188.938V83.8125H230.062ZM235.25 44V56.5H188.938V44H235.25ZM282.25 121.438V89.1875C282.25 86.7708 281.812 84.6875 280.938 82.9375C280.062 81.1875 278.729 79.8333 276.938 78.875C275.188 77.9167 272.979 77.4375 270.312 77.4375C267.854 77.4375 265.729 77.8542 263.938 78.6875C262.146 79.5208 260.75 80.6458 259.75 82.0625C258.75 83.4792 258.25 85.0833 258.25 86.875H243.25C243.25 84.2083 243.896 81.625 245.188 79.125C246.479 76.625 248.354 74.3958 250.812 72.4375C253.271 70.4792 256.208 68.9375 259.625 67.8125C263.042 66.6875 266.875 66.125 271.125 66.125C276.208 66.125 280.708 66.9792 284.625 68.6875C288.583 70.3958 291.688 72.9792 293.938 76.4375C296.229 79.8542 297.375 84.1458 297.375 89.3125V119.375C297.375 122.458 297.583 125.229 298 127.688C298.458 130.104 299.104 132.208 299.938 134V135H284.5C283.792 133.375 283.229 131.312 282.812 128.812C282.438 126.271 282.25 123.812 282.25 121.438ZM284.438 93.875L284.562 103.188H273.75C270.958 103.188 268.5 103.458 266.375 104C264.25 104.5 262.479 105.25 261.062 106.25C259.646 107.25 258.583 108.458 257.875 109.875C257.167 111.292 256.812 112.896 256.812 114.688C256.812 116.479 257.229 118.125 258.062 119.625C258.896 121.083 260.104 122.229 261.688 123.062C263.312 123.896 265.271 124.312 267.562 124.312C270.646 124.312 273.333 123.688 275.625 122.438C277.958 121.146 279.792 119.583 281.125 117.75C282.458 115.875 283.167 114.104 283.25 112.438L288.125 119.125C287.625 120.833 286.771 122.667 285.562 124.625C284.354 126.583 282.771 128.458 280.812 130.25C278.896 132 276.583 133.438 273.875 134.562C271.208 135.688 268.125 136.25 264.625 136.25C260.208 136.25 256.271 135.375 252.812 133.625C249.354 131.833 246.646 129.438 244.688 126.438C242.729 123.396 241.75 119.958 241.75 116.125C241.75 112.542 242.417 109.375 243.75 106.625C245.125 103.833 247.125 101.5 249.75 99.625C252.417 97.75 255.667 96.3333 259.5 95.375C263.333 94.375 267.708 93.875 272.625 93.875H284.438ZM328.25 80.25V135H313.188V67.375H327.562L328.25 80.25ZM348.938 66.9375L348.812 80.9375C347.896 80.7708 346.896 80.6458 345.812 80.5625C344.771 80.4792 343.729 80.4375 342.688 80.4375C340.104 80.4375 337.833 80.8125 335.875 81.5625C333.917 82.2708 332.271 83.3125 330.938 84.6875C329.646 86.0208 328.646 87.6458 327.938 89.5625C327.229 91.4792 326.812 93.625 326.688 96L323.25 96.25C323.25 92 323.667 88.0625 324.5 84.4375C325.333 80.8125 326.583 77.625 328.25 74.875C329.958 72.125 332.083 69.9792 334.625 68.4375C337.208 66.8958 340.188 66.125 343.562 66.125C344.479 66.125 345.458 66.2083 346.5 66.375C347.583 66.5417 348.396 66.7292 348.938 66.9375ZM374.5 67.375V135H359.375V67.375H374.5ZM358.375 49.625C358.375 47.3333 359.125 45.4375 360.625 43.9375C362.167 42.3958 364.292 41.625 367 41.625C369.667 41.625 371.771 42.3958 373.312 43.9375C374.854 45.4375 375.625 47.3333 375.625 49.625C375.625 51.875 374.854 53.75 373.312 55.25C371.771 56.75 369.667 57.5 367 57.5C364.292 57.5 362.167 56.75 360.625 55.25C359.125 53.75 358.375 51.875 358.375 49.625ZM429.125 121.438V89.1875C429.125 86.7708 428.688 84.6875 427.812 82.9375C426.938 81.1875 425.604 79.8333 423.812 78.875C422.062 77.9167 419.854 77.4375 417.188 77.4375C414.729 77.4375 412.604 77.8542 410.812 78.6875C409.021 79.5208 407.625 80.6458 406.625 82.0625C405.625 83.4792 405.125 85.0833 405.125 86.875H390.125C390.125 84.2083 390.771 81.625 392.062 79.125C393.354 76.625 395.229 74.3958 397.688 72.4375C400.146 70.4792 403.083 68.9375 406.5 67.8125C409.917 66.6875 413.75 66.125 418 66.125C423.083 66.125 427.583 66.9792 431.5 68.6875C435.458 70.3958 438.562 72.9792 440.812 76.4375C443.104 79.8542 444.25 84.1458 444.25 89.3125V119.375C444.25 122.458 444.458 125.229 444.875 127.688C445.333 130.104 445.979 132.208 446.812 134V135H431.375C430.667 133.375 430.104 131.312 429.688 128.812C429.312 126.271 429.125 123.812 429.125 121.438ZM431.312 93.875L431.438 103.188H420.625C417.833 103.188 415.375 103.458 413.25 104C411.125 104.5 409.354 105.25 407.938 106.25C406.521 107.25 405.458 108.458 404.75 109.875C404.042 111.292 403.688 112.896 403.688 114.688C403.688 116.479 404.104 118.125 404.938 119.625C405.771 121.083 406.979 122.229 408.562 123.062C410.188 123.896 412.146 124.312 414.438 124.312C417.521 124.312 420.208 123.688 422.5 122.438C424.833 121.146 426.667 119.583 428 117.75C429.333 115.875 430.042 114.104 430.125 112.438L435 119.125C434.5 120.833 433.646 122.667 432.438 124.625C431.229 126.583 429.646 128.458 427.688 130.25C425.771 132 423.458 133.438 420.75 134.562C418.083 135.688 415 136.25 411.5 136.25C407.083 136.25 403.146 135.375 399.688 133.625C396.229 131.833 393.521 129.438 391.562 126.438C389.604 123.396 388.625 119.958 388.625 116.125C388.625 112.542 389.292 109.375 390.625 106.625C392 103.833 394 101.5 396.625 99.625C399.292 97.75 402.542 96.3333 406.375 95.375C410.208 94.375 414.583 93.875 419.5 93.875H431.312ZM501.25 121V39H516.375V135H502.688L501.25 121ZM457.25 101.938V100.625C457.25 95.5 457.854 90.8333 459.062 86.625C460.271 82.375 462.021 78.7292 464.312 75.6875C466.604 72.6042 469.396 70.25 472.688 68.625C475.979 66.9583 479.688 66.125 483.812 66.125C487.896 66.125 491.479 66.9167 494.562 68.5C497.646 70.0833 500.271 72.3542 502.438 75.3125C504.604 78.2292 506.333 81.7292 507.625 85.8125C508.917 89.8542 509.833 94.3542 510.375 99.3125V103.5C509.833 108.333 508.917 112.75 507.625 116.75C506.333 120.75 504.604 124.208 502.438 127.125C500.271 130.042 497.625 132.292 494.5 133.875C491.417 135.458 487.812 136.25 483.688 136.25C479.604 136.25 475.917 135.396 472.625 133.688C469.375 131.979 466.604 129.583 464.312 126.5C462.021 123.417 460.271 119.792 459.062 115.625C457.854 111.417 457.25 106.854 457.25 101.938ZM472.312 100.625V101.938C472.312 105.021 472.583 107.896 473.125 110.562C473.708 113.229 474.604 115.583 475.812 117.625C477.021 119.625 478.583 121.208 480.5 122.375C482.458 123.5 484.792 124.062 487.5 124.062C490.917 124.062 493.729 123.312 495.938 121.812C498.146 120.312 499.875 118.292 501.125 115.75C502.417 113.167 503.292 110.292 503.75 107.125V95.8125C503.5 93.3542 502.979 91.0625 502.188 88.9375C501.438 86.8125 500.417 84.9583 499.125 83.375C497.833 81.75 496.229 80.5 494.312 79.625C492.438 78.7083 490.208 78.25 487.625 78.25C484.875 78.25 482.542 78.8333 480.625 80C478.708 81.1667 477.125 82.7708 475.875 84.8125C474.667 86.8542 473.771 89.2292 473.188 91.9375C472.604 94.6458 472.312 97.5417 472.312 100.625ZM561.938 136.25C556.938 136.25 552.417 135.438 548.375 133.812C544.375 132.146 540.958 129.833 538.125 126.875C535.333 123.917 533.188 120.438 531.688 116.438C530.188 112.438 529.438 108.125 529.438 103.5V101C529.438 95.7083 530.208 90.9167 531.75 86.625C533.292 82.3333 535.438 78.6667 538.188 75.625C540.938 72.5417 544.188 70.1875 547.938 68.5625C551.688 66.9375 555.75 66.125 560.125 66.125C564.958 66.125 569.188 66.9375 572.812 68.5625C576.438 70.1875 579.438 72.4792 581.812 75.4375C584.229 78.3542 586.021 81.8333 587.188 85.875C588.396 89.9167 589 94.375 589 99.25V105.688H536.75V94.875H574.125V93.6875C574.042 90.9792 573.5 88.4375 572.5 86.0625C571.542 83.6875 570.062 81.7708 568.062 80.3125C566.062 78.8542 563.396 78.125 560.062 78.125C557.562 78.125 555.333 78.6667 553.375 79.75C551.458 80.7917 549.854 82.3125 548.562 84.3125C547.271 86.3125 546.271 88.7292 545.562 91.5625C544.896 94.3542 544.562 97.5 544.562 101V103.5C544.562 106.458 544.958 109.208 545.75 111.75C546.583 114.25 547.792 116.438 549.375 118.312C550.958 120.188 552.875 121.667 555.125 122.75C557.375 123.792 559.938 124.312 562.812 124.312C566.438 124.312 569.667 123.583 572.5 122.125C575.333 120.667 577.792 118.604 579.875 115.938L587.812 123.625C586.354 125.75 584.458 127.792 582.125 129.75C579.792 131.667 576.938 133.229 573.562 134.438C570.229 135.646 566.354 136.25 561.938 136.25ZM612.25 67.375L625.125 89.8125L638.25 67.375H654.812L634.312 100.562L655.625 135H639.062L625.312 111.625L611.562 135H594.938L616.188 100.562L595.75 67.375H612.25Z" fill="white"/>
<g clip-path="url(#clip0_19_21)">
<g filter="url(#filter0_ii_19_21)">
<path d="M127.784 5.20001H40.2162C22.3043 5.20001 7.78381 19.7508 7.78381 37.7V126.1C7.78381 144.049 22.3043 158.6 40.2162 158.6H127.784C145.696 158.6 160.216 144.049 160.216 126.1V37.7C160.216 19.7508 145.696 5.20001 127.784 5.20001Z" fill="#D72C36"/>
</g>
<g filter="url(#filter1_f_19_21)">
<path d="M123.243 9.75H44.7568C26.8448 9.75 12.3243 24.3007 12.3243 42.25V121.55C12.3243 139.499 26.8448 154.05 44.7568 154.05H123.243C141.155 154.05 155.676 139.499 155.676 121.55V42.25C155.676 24.3007 141.155 9.75 123.243 9.75Z" fill="#FD3E4A"/>
</g>
<mask id="mask0_19_21" style="mask-type:alpha" maskUnits="userSpaceOnUse" x="7" y="5" width="154" height="154">
<path d="M127.784 5.20001H40.2162C22.3043 5.20001 7.78381 19.7508 7.78381 37.7V126.1C7.78381 144.049 22.3043 158.6 40.2162 158.6H127.784C145.696 158.6 160.216 144.049 160.216 126.1V37.7C160.216 19.7508 145.696 5.20001 127.784 5.20001Z" fill="#EC3843"/>
</mask>
<g mask="url(#mask0_19_21)">
<g filter="url(#filter2_i_19_21)">
<path d="M84.9515 59.15H9.72967C5.07257 59.15 1.29724 55.3668 1.29724 50.7V8.45C1.29724 3.78319 5.07257 0 9.72967 0H157.622C162.279 0 166.054 3.7832 166.054 8.45V25.3707C166.054 30.0375 162.279 33.8207 157.622 33.8207H120.61C117.147 33.8207 113.813 35.1428 111.288 37.5181L90.7225 56.8612C89.1593 58.3316 87.0959 59.15 84.9515 59.15Z" stroke="#76050C" stroke-width="8"/>
</g>
<path d="M38.119 46.4967C44.4837 46.4967 49.6433 41.3263 49.6433 34.9483C49.6433 28.5704 44.4837 23.4 38.119 23.4C31.7542 23.4 26.5946 28.5704 26.5946 34.9483C26.5946 41.3263 31.7542 46.4967 38.119 46.4967Z" fill="url(#paint0_radial_19_21)"/>
<g style="mix-blend-mode:soft-light" filter="url(#filter3_f_19_21)">
<path style="mix-blend-mode:soft-light" d="M34.8325 39.91C39.0239 39.91 42.4217 36.5051 42.4217 32.305C42.4217 28.1049 39.0239 24.7 34.8325 24.7C30.6411 24.7 27.2433 28.1049 27.2433 32.305C27.2433 36.5051 30.6411 39.91 34.8325 39.91Z" fill="url(#paint1_radial_19_21)"/>
</g>
<g filter="url(#filter4_ii_19_21)">
<path d="M37.9459 46.475C44.3942 46.475 49.6216 41.2367 49.6216 34.775C49.6216 28.3133 44.3942 23.075 37.9459 23.075C31.4976 23.075 26.2703 28.3133 26.2703 34.775C26.2703 41.2367 31.4976 46.475 37.9459 46.475Z" stroke="#E4E4E4" stroke-width="3"/>
</g>
<g filter="url(#filter5_i_19_21)">
<path d="M27.2433 75.4C27.2433 72.1688 29.857 69.55 33.0811 69.55H130.378C133.603 69.55 136.216 72.1688 136.216 75.4V138.45C136.216 141.681 133.603 144.3 130.378 144.3H42.32C40.3944 144.3 38.5926 143.348 37.5042 141.757L28.2653 128.245C27.5996 127.271 27.2433 126.118 27.2433 124.938V75.4Z" fill="#EFEFEF"/>
</g>
<g filter="url(#filter6_i_19_21)">
<path d="M37.6216 82.55C37.6216 79.3189 40.2352 76.7 43.4594 76.7H120C123.224 76.7 125.838 79.3189 125.838 82.55V131.3C125.838 134.531 123.224 137.15 120 137.15H50.4109C48.4862 137.15 46.6852 136.2 45.5966 134.609L38.6451 124.453C37.9784 123.479 37.6216 122.325 37.6216 121.144V82.55Z" fill="#1D243A"/>
</g>
</g>
</g>
<defs>
<filter id="filter0_ii_19_21" x="7.78381" y="5.20001" width="152.432" height="157.4" filterUnits="userSpaceOnUse" color-interpolation-filters="sRGB">
<feFlood flood-opacity="0" result="BackgroundImageFix"/>
<feBlend mode="normal" in="SourceGraphic" in2="BackgroundImageFix" result="shape"/>
<feColorMatrix in="SourceAlpha" type="matrix" values="0 0 0 0 0 0 0 0 0 0 0 0 0 0 0 0 0 0 127 0" result="hardAlpha"/>
<feOffset dy="4"/>
<feGaussianBlur stdDeviation="6"/>
<feComposite in2="hardAlpha" operator="arithmetic" k2="-1" k3="1"/>
<feColorMatrix type="matrix" values="0 0 0 0 0 0 0 0 0 0 0 0 0 0 0 0 0 0 0.25 0"/>
<feBlend mode="normal" in2="shape" result="effect1_innerShadow_19_21"/>
<feColorMatrix in="SourceAlpha" type="matrix" values="0 0 0 0 0 0 0 0 0 0 0 0 0 0 0 0 0 0 127 0" result="hardAlpha"/>
<feOffset dy="4"/>
<feGaussianBlur stdDeviation="2"/>
<feComposite in2="hardAlpha" operator="arithmetic" k2="-1" k3="1"/>
<feColorMatrix type="matrix" values="0 0 0 0 1 0 0 0 0 0.8375 0 0 0 0 0.8375 0 0 0 0.6 0"/>
<feBlend mode="normal" in2="effect1_innerShadow_19_21" result="effect2_innerShadow_19_21"/>
</filter>
<filter id="filter1_f_19_21" x="0.324341" y="-2.25" width="167.351" height="168.3" filterUnits="userSpaceOnUse" color-interpolation-filters="sRGB">
<feFlood flood-opacity="0" result="BackgroundImageFix"/>
<feBlend mode="normal" in="SourceGraphic" in2="BackgroundImageFix" result="shape"/>
<feGaussianBlur stdDeviation="6" result="effect1_foregroundBlur_19_21"/>
</filter>
<filter id="filter2_i_19_21" x="-2.70276" y="-4" width="172.757" height="69.15" filterUnits="userSpaceOnUse" color-interpolation-filters="sRGB">
<feFlood flood-opacity="0" result="BackgroundImageFix"/>
<feBlend mode="normal" in="SourceGraphic" in2="BackgroundImageFix" result="shape"/>
<feColorMatrix in="SourceAlpha" type="matrix" values="0 0 0 0 0 0 0 0 0 0 0 0 0 0 0 0 0 0 127 0" result="hardAlpha"/>
<feOffset dy="4"/>
<feGaussianBlur stdDeviation="1"/>
<feComposite in2="hardAlpha" operator="arithmetic" k2="-1" k3="1"/>
<feColorMatrix type="matrix" values="0 0 0 0 0 0 0 0 0 0 0 0 0 0 0 0 0 0 0.25 0"/>
<feBlend mode="normal" in2="shape" result="effect1_innerShadow_19_21"/>
</filter>
<filter id="filter3_f_19_21" x="23.2433" y="20.7" width="23.1783" height="23.21" filterUnits="userSpaceOnUse" color-interpolation-filters="sRGB">
<feFlood flood-opacity="0" result="BackgroundImageFix"/>
<feBlend mode="normal" in="SourceGraphic" in2="BackgroundImageFix" result="shape"/>
<feGaussianBlur stdDeviation="2" result="effect1_foregroundBlur_19_21"/>
</filter>
<filter id="filter4_ii_19_21" x="24.7703" y="20.575" width="26.3513" height="28.4" filterUnits="userSpaceOnUse" color-interpolation-filters="sRGB">
<feFlood flood-opacity="0" result="BackgroundImageFix"/>
<feBlend mode="normal" in="SourceGraphic" in2="BackgroundImageFix" result="shape"/>
<feColorMatrix in="SourceAlpha" type="matrix" values="0 0 0 0 0 0 0 0 0 0 0 0 0 0 0 0 0 0 127 0" result="hardAlpha"/>
<feOffset dy="1"/>
<feGaussianBlur stdDeviation="2"/>
<feComposite in2="hardAlpha" operator="arithmetic" k2="-1" k3="1"/>
<feColorMatrix type="matrix" values="0 0 0 0 0.0557812 0 0 0 0 0.127872 0 0 0 0 0.2125 0 0 0 0.3 0"/>
<feBlend mode="normal" in2="shape" result="effect1_innerShadow_19_21"/>
<feColorMatrix in="SourceAlpha" type="matrix" values="0 0 0 0 0 0 0 0 0 0 0 0 0 0 0 0 0 0 127 0" result="hardAlpha"/>
<feOffset dy="-1"/>
<feGaussianBlur stdDeviation="2"/>
<feComposite in2="hardAlpha" operator="arithmetic" k2="-1" k3="1"/>
<feColorMatrix type="matrix" values="0 0 0 0 0.0708333 0 0 0 0 0.00059028 0 0 0 0 0.00059028 0 0 0 0.25 0"/>
<feBlend mode="normal" in2="effect1_innerShadow_19_21" result="effect2_innerShadow_19_21"/>
</filter>
<filter id="filter5_i_19_21" x="27.2433" y="69.55" width="108.973" height="75.75" filterUnits="userSpaceOnUse" color-interpolation-filters="sRGB">
<feFlood flood-opacity="0" result="BackgroundImageFix"/>
<feBlend mode="normal" in="SourceGraphic" in2="BackgroundImageFix" result="shape"/>
<feColorMatrix in="SourceAlpha" type="matrix" values="0 0 0 0 0 0 0 0 0 0 0 0 0 0 0 0 0 0 127 0" result="hardAlpha"/>
<feOffset dy="2"/>
<feGaussianBlur stdDeviation="0.5"/>
<feComposite in2="hardAlpha" operator="arithmetic" k2="-1" k3="1"/>
<feColorMatrix type="matrix" values="0 0 0 0 0 0 0 0 0 0 0 0 0 0 0 0 0 0 0.25 0"/>
<feBlend mode="normal" in2="shape" result="effect1_innerShadow_19_21"/>
</filter>
<filter id="filter6_i_19_21" x="37.6216" y="76.7" width="88.2162" height="64.45" filterUnits="userSpaceOnUse" color-interpolation-filters="sRGB">
<feFlood flood-opacity="0" result="BackgroundImageFix"/>
<feBlend mode="normal" in="SourceGraphic" in2="BackgroundImageFix" result="shape"/>
<feColorMatrix in="SourceAlpha" type="matrix" values="0 0 0 0 0 0 0 0 0 0 0 0 0 0 0 0 0 0 127 0" result="hardAlpha"/>
<feOffset dy="4"/>
<feGaussianBlur stdDeviation="2"/>
<feComposite in2="hardAlpha" operator="arithmetic" k2="-1" k3="1"/>
<feColorMatrix type="matrix" values="0 0 0 0 0 0 0 0 0 0 0 0 0 0 0 0 0 0 0.4 0"/>
<feBlend mode="normal" in2="shape" result="effect1_innerShadow_19_21"/>
</filter>
<radialGradient id="paint0_radial_19_21" cx="0" cy="0" r="1" gradientUnits="userSpaceOnUse" gradientTransform="translate(38.119 34.9483) rotate(90) scale(11.5484 11.5243)">
<stop stop-color="#4C9FEB"/>
<stop offset="1" stop-color="#0650C0"/>
</radialGradient>
<radialGradient id="paint1_radial_19_21" cx="0" cy="0" r="1" gradientUnits="userSpaceOnUse" gradientTransform="translate(34.8325 32.305) rotate(90) scale(7.605 7.58919)">
<stop stop-color="#B4DDF3"/>
<stop offset="1" stop-color="#28AAFD"/>
</radialGradient>
<clipPath id="clip0_19_21">
<rect width="168" height="169" fill="white"/>
</clipPath>
</defs>
</svg>
